<svg width="23" height="23" viewBox="0 0 23 23" fill="none" xmlns="http://www.w3.org/2000/svg">
<path d="M22.4737 10.2294L12.7706 0.526294C12.0688 -0.175431 10.9311 -0.175431 10.2294 0.526294L0.526294 10.2294C-0.175431 10.9312 -0.175431 12.0689 0.526294 12.7706C1.06419 13.3085 1.85809 13.4335 2.51562 13.1468V20.3047C2.51562 21.7933 3.72235 23 5.21093 23H17.7891C19.2776 23 20.4844 21.7933 20.4844 20.3047V13.1468C21.1419 13.4335 21.9358 13.3085 22.4737 12.7706C23.1754 12.0688 23.1754 10.9312 22.4737 10.2294ZM14.6445 19.4063C14.6445 19.9025 14.2423 20.3047 13.7461 20.3047H9.2539C8.7577 20.3047 8.35547 19.9025 8.35547 19.4063V14.0156C8.35547 13.5194 8.7577 13.1172 9.2539 13.1172H13.7461C14.2423 13.1172 14.6445 13.5194 14.6445 14.0156V19.4063Z" fill="#569B4F"/>
</svg>
