<svg width="20" height="20" viewBox="0 0 20 20" fill="none" xmlns="http://www.w3.org/2000/svg">
<path d="M13.3342 14.2081L15.0564 12.4859C15.2883 12.2569 15.5818 12.1 15.9012 12.0345C16.2205 11.969 16.552 11.9976 16.8555 12.1169L18.9544 12.9549C19.261 13.0794 19.5239 13.2918 19.71 13.5655C19.8961 13.8391 19.997 14.1617 20 14.4926V18.3368C19.9982 18.5619 19.9509 18.7843 19.8609 18.9906C19.7709 19.197 19.6401 19.3829 19.4763 19.5374C19.3125 19.6918 19.1192 19.8115 18.9079 19.8893C18.6967 19.967 18.4719 20.0012 18.2471 19.9898C3.5392 19.0749 0.57149 6.61972 0.010239 1.85293C-0.0158147 1.61885 0.00798984 1.3819 0.0800864 1.15768C0.152183 0.933454 0.270938 0.727038 0.428538 0.552007C0.586138 0.376976 0.779012 0.237298 0.994471 0.142162C1.20993 0.0470249 1.44309 -0.00141401 1.67862 3.14216e-05H5.3921C5.72347 0.00101229 6.04698 0.101108 6.321 0.287445C6.59503 0.473782 6.80704 0.737838 6.92977 1.04565L7.7678 3.14457C7.89101 3.44678 7.92245 3.77859 7.85818 4.09856C7.79391 4.41852 7.63679 4.71246 7.40645 4.94365L5.68426 6.66585C5.68426 6.66585 6.67606 13.3778 13.3342 14.2081Z" fill="#569B4F"/>
</svg>
