<svg width="160" height="53" viewBox="0 0 160 53" fill="none" xmlns="http://www.w3.org/2000/svg">
<path fill-rule="evenodd" clip-rule="evenodd" d="M54.072 25.3671V50.7342H55.9078H57.7436V25.3671V0H55.9078H54.072V25.3671ZM19.6929 0.441922C17.7195 0.567756 15.9546 0.740986 15.7711 0.827101C15.5875 0.913216 14.8365 1.05941 14.1022 1.1522C11.8687 1.43424 9.61269 1.83778 9.30244 2.01068C9.1409 2.1008 8.44614 2.26201 7.75872 2.36882C7.07114 2.4758 6.50873 2.61815 6.50873 2.68541C6.50873 2.75266 6.20832 2.85847 5.84117 2.92055L5.17361 3.03337V7.35779C5.17361 9.89417 5.10986 11.6822 5.01924 11.6822C4.83416 11.6822 3.07332 9.95375 2.54795 9.25632C1.76574 8.21777 1.56748 7.97728 0.966347 7.33593C0.625727 6.97278 0.268919 6.67555 0.173626 6.67555C0.0781652 6.67555 6.10352e-05 6.9384 6.10352e-05 7.25966C6.10352e-05 7.58092 0.0669832 7.84377 0.148926 7.84377C0.230701 7.84377 0.34769 8.05021 0.408938 8.30272C0.552463 8.89417 1.17446 10.2027 1.44081 10.4733C1.5543 10.5886 1.69465 10.8326 1.75273 11.0157C1.8108 11.1987 1.91978 11.3484 1.99505 11.3484C2.07015 11.3484 2.18213 11.6847 2.24388 12.0958C2.32532 12.6393 2.53427 13.0379 3.00923 13.556C3.5074 14.0996 3.66377 14.409 3.66711 14.8584C3.67078 15.3448 3.80279 15.5639 4.42128 16.1101L5.17094 16.7723L5.17211 23.6982C5.17311 30.2004 5.34084 33.3778 5.68296 33.3778C5.75172 33.3778 5.89791 33.7533 6.00806 34.2122C6.11821 34.6711 6.26857 35.0466 6.34217 35.0466C6.41577 35.0466 6.56146 35.2533 6.66593 35.5056C6.92845 36.1401 7.37121 36.949 7.51089 37.0493C7.57464 37.0952 7.72351 37.3158 7.8415 37.5395C7.95932 37.7631 8.12204 38.0259 8.20281 38.1236C8.28359 38.2212 8.51757 38.5002 8.72267 38.7437C8.92761 38.9874 9.2457 39.3854 9.42928 39.6286C10.0484 40.4485 13.9084 44.2582 14.5503 44.683C14.9004 44.9148 15.1869 45.1718 15.1869 45.2542C15.1869 45.3367 15.3183 45.4535 15.479 45.5137C15.6397 45.5742 15.8462 45.7103 15.9379 45.8166C16.1941 46.113 19.5708 48.4985 19.9016 48.6167C20.0623 48.6741 20.1936 48.7984 20.1936 48.8932C20.1936 48.9879 20.2737 49.0653 20.3717 49.0653C20.4695 49.0653 20.7957 49.253 21.0966 49.4825C21.3975 49.712 21.7305 49.8997 21.8365 49.8997C21.9426 49.8997 22.0294 49.9662 22.0294 50.0471C22.0294 50.1282 22.1607 50.2427 22.3214 50.3014C22.4822 50.3604 22.9139 50.5938 23.2811 50.8205C23.6482 51.0471 24.1876 51.3445 24.4796 51.4815C24.7717 51.6184 25.0577 51.8068 25.1153 51.8999C25.239 52.1002 26.8692 52.1314 26.8692 51.9336C26.8692 51.8589 27.132 51.6946 27.4533 51.5686C27.7745 51.4426 28.0374 51.2784 28.0374 51.2036C28.0374 51.129 28.1409 51.068 28.2674 51.068C28.3937 51.068 28.59 50.9561 28.7034 50.8195C28.8169 50.6828 28.9763 50.6122 29.0576 50.6624C29.139 50.7127 29.2056 50.6931 29.2058 50.6189C29.2059 50.5446 29.6001 50.2642 30.0819 49.9959C30.5637 49.7275 31.2879 49.2581 31.6912 48.9528C32.0945 48.6476 32.5264 48.3977 32.6509 48.3977C32.7754 48.3977 32.8772 48.3208 32.8772 48.2267C32.8772 48.1327 33.0649 47.9844 33.2944 47.8971C33.5239 47.8098 33.7116 47.6614 33.7116 47.5675C33.7116 47.4733 33.8056 47.3962 33.9202 47.3962C34.1151 47.3961 34.7874 46.9039 35.3945 46.317C35.5399 46.1763 35.7465 46.0613 35.8535 46.0613C35.9604 46.0613 36.048 45.9935 36.048 45.9108C36.048 45.828 36.2642 45.6215 36.5282 45.4518C37.3746 44.9081 38.7129 43.6945 40.8247 41.5553C43.1543 39.1955 43.1278 39.2252 43.8084 38.2119C44.0837 37.802 44.403 37.3672 44.5177 37.2461C44.6325 37.1247 44.7263 36.961 44.7263 36.8824C44.7263 36.8038 44.8202 36.6401 44.9349 36.5188C45.1912 36.2477 46.0614 34.4962 46.0614 34.2511C46.0614 34.1533 46.1353 34.0481 46.2258 34.0174C46.3162 33.9869 46.4718 33.5113 46.5714 32.9605C46.6712 32.4098 46.8226 31.8289 46.9078 31.6695C46.9971 31.5023 47.0627 27.8749 47.0627 23.0997V14.8197L47.6625 14.2199C48.0484 13.8341 48.2938 13.4082 48.3504 13.0267C48.3988 12.7002 48.5275 12.3581 48.6363 12.2663C48.9285 12.02 49.566 10.6281 49.566 10.2365C49.566 10.05 49.7116 9.72962 49.8896 9.52451C50.0675 9.31924 50.2646 8.91353 50.3277 8.62281C50.3908 8.33209 50.4904 8.05656 50.5492 8.01066C50.6079 7.96477 50.7862 7.42672 50.9454 6.81507C51.1538 6.0145 51.2349 5.04421 51.2349 3.35213C51.2349 1.0998 51.0614 0.345126 50.8287 1.58544C50.7685 1.9067 50.6557 2.16955 50.5779 2.16955C50.5003 2.16955 50.3941 2.33861 50.3421 2.54505C50.2152 3.04856 49.8836 3.46645 48.3561 5.04822L47.0627 6.3875V4.70593V3.02453L46.3117 2.91188C45.8987 2.84996 45.5607 2.74298 45.5607 2.67423C45.5607 2.60547 44.9786 2.4561 44.2673 2.34228C43.556 2.22847 42.8988 2.07643 42.807 2.00433C42.7153 1.93207 42.2271 1.82092 41.7223 1.757C41.2174 1.69309 40.3913 1.54005 39.8865 1.41672C39.3816 1.29339 38.4429 1.13952 37.8004 1.07476C37.1579 1.01001 36.5946 0.900865 36.5487 0.832274C36.4247 0.646694 28.1332 0.163384 25.534 0.190086C24.2949 0.20277 21.6664 0.316088 19.6929 0.441922ZM20.9987 2.58845C20.9518 2.63517 19.8692 2.75149 18.5926 2.84679C17.3161 2.94225 16.084 3.08944 15.8545 3.17422C15.625 3.25884 14.6112 3.41371 13.6015 3.51835C12.5918 3.62299 11.7282 3.75984 11.6823 3.82259C11.6364 3.88534 11.0054 4.03404 10.2801 4.15303C9.55478 4.27202 8.80378 4.43257 8.61119 4.50967C8.4186 4.58677 8.05445 4.69391 7.80211 4.74798L7.34317 4.84612V9.01199V13.1779L7.80211 13.2867C8.05445 13.3464 8.57815 13.5365 8.96566 13.7091C9.35334 13.8816 10.121 14.0699 10.6718 14.1275C11.2225 14.185 11.6374 14.29 11.5937 14.3608C11.508 14.4995 13.2083 14.6433 16.0509 14.7379C17.6664 14.7917 17.8403 14.7687 17.9129 14.4915C17.995 14.1772 18.8585 14.037 18.8585 14.3377C18.8585 14.4215 19.1586 14.5407 19.5252 14.6026C19.8919 14.6645 20.2295 14.7763 20.2757 14.8509C20.3218 14.9254 20.754 15.0779 21.2362 15.1897C23.1265 15.628 27.758 18.2223 28.629 19.3307C28.725 19.4529 29.0582 19.5655 29.3695 19.5811C29.9958 19.6124 29.8959 19.8079 30.4649 17.4399C30.6193 16.7974 30.8498 16.1532 30.977 16.0081C31.1041 15.8633 31.2083 15.6655 31.2083 15.5687C31.2083 15.3289 31.7897 15.1919 32.8181 15.1892C33.6211 15.187 33.7133 15.2311 34.2366 15.8675C34.5445 16.2418 34.9279 16.6715 35.0884 16.8224C35.4387 17.1515 35.4743 17.6902 35.1458 17.6902C34.9933 17.6902 34.9416 17.807 34.9983 18.024C35.0464 18.2076 35.1302 18.3578 35.1844 18.3578C35.3002 18.3578 36.6495 16.9227 37.1328 16.2852C37.3164 16.0432 37.6919 15.5912 37.9673 15.281C38.2426 14.9708 38.6557 14.4828 38.8852 14.1969C39.1146 13.9108 39.6952 13.2919 40.1752 12.8214C40.6553 12.3508 41.0964 11.8139 41.1553 11.6283C41.2915 11.1989 41.4576 10.9868 42.4369 9.99063C42.8758 9.5442 43.3039 9.17888 43.3881 9.17888C43.4724 9.17888 43.6014 9.07808 43.6749 8.95475C43.7483 8.83159 44.0175 8.59594 44.2728 8.43122C44.7366 8.13232 44.7373 8.12882 44.69 6.44408L44.6428 4.75633L44.1422 4.69992C43.8668 4.66871 43.5664 4.58477 43.4746 4.51317C43.3828 4.44158 42.6694 4.28353 41.8892 4.16187C41.1089 4.04038 40.433 3.88901 40.3872 3.82576C40.3413 3.76234 39.6654 3.62883 38.8852 3.52903C38.1049 3.42906 37.2038 3.3099 36.8825 3.26401C36.5612 3.21812 35.5474 3.1023 34.6295 3.00667C33.7116 2.91104 32.4523 2.75867 31.8309 2.66805C30.6882 2.5015 21.1557 2.4314 20.9987 2.58845ZM64.7529 9.00882C64.7529 9.78068 64.7202 9.84711 64.294 9.93773C63.284 10.1528 62.1833 10.789 61.4927 11.557C60.4527 12.7139 60.198 13.6213 60.2718 15.9088C60.3274 17.6283 60.3723 17.8452 60.8489 18.6915C61.4897 19.8296 62.4834 20.6116 63.7679 20.9891L64.7524 21.2783L64.7528 22.071C64.7528 22.5071 64.828 22.8688 64.9198 22.8749C65.0116 22.881 65.4811 22.8913 65.9629 22.8978L66.839 22.9097L66.8884 22.0819L66.9378 21.254L67.7506 21.0457C69.5189 20.5926 70.8619 19.2933 71.3704 17.5438C71.6816 16.4734 71.6112 13.919 71.2481 13.1008C70.5316 11.4871 69.2758 10.3776 67.7514 10.012L66.9225 9.81323V8.99531V8.17755H65.8377H64.7529V9.00882ZM152.37 8.54204C152.37 8.97161 153.091 10.1961 153.527 10.5066C154.573 11.251 156.402 11.3005 157.423 10.6125C158.084 10.1667 158.711 9.25415 158.711 8.73696C158.711 8.38332 158.637 8.34444 157.965 8.34444C157.311 8.34444 157.187 8.40418 156.97 8.82491C156.678 9.38849 156.416 9.51266 155.519 9.51266C155.039 9.51266 154.745 9.40018 154.448 9.10295C154.223 8.87765 154.038 8.6148 154.038 8.51884C154.038 8.42087 153.673 8.34444 153.204 8.34444C152.672 8.34444 152.37 8.4162 152.37 8.54204ZM63.9489 12.1879C62.4963 13.0736 62.1383 16.7209 63.3482 18.3074C63.5795 18.6106 63.9902 18.9732 64.2609 19.1133L64.7529 19.3676V15.6084C64.7529 13.5409 64.6967 11.8494 64.6278 11.8498C64.5588 11.8501 64.2534 12.0023 63.9489 12.1879ZM66.9225 15.6148V19.3805L67.5703 19.0163C68.5343 18.4746 68.974 17.5662 69.0587 15.9419C69.1498 14.1949 68.8953 13.282 68.0944 12.4809C66.9347 11.3214 66.9225 11.3541 66.9225 15.6148ZM95.1594 12.1555C93.8757 12.6136 92.7902 13.7598 92.7902 14.657C92.7902 15.0021 93.3493 15.1869 94.3934 15.1869C94.8525 15.1869 94.9725 15.1113 95.0588 14.767C95.3018 13.799 96.7594 13.3332 97.3844 14.0238C97.5531 14.2102 97.7378 14.7263 97.7947 15.1705L97.8984 15.9781L96.6377 16.0699C94.2454 16.244 92.9913 17.0308 92.5195 18.6535C92.0628 20.2249 92.6324 21.8457 93.8437 22.4205C95.1098 23.0213 96.9982 22.6156 97.7734 21.5762L98.1202 21.1114L98.1254 21.8207L98.1307 22.53H99.211H100.291L100.205 18.7333C100.1 14.1635 100.047 13.666 99.6085 13.1078C98.7649 12.0354 96.7216 11.5981 95.1594 12.1555ZM114.27 12.1181C113.251 12.4314 112.287 13.384 111.906 14.4537C111.474 15.67 111.378 18.1935 111.715 19.5262C112.262 21.694 113.41 22.6894 115.367 22.6942C116.697 22.6974 117.374 22.4504 118.111 21.693C118.686 21.1023 119.218 19.7777 119.129 19.1543C119.081 18.8142 118.971 18.77 118.069 18.7263L117.062 18.6775L116.869 19.3938C116.583 20.4495 116.294 20.761 115.598 20.761C114.419 20.761 113.985 19.8377 113.986 17.3371C113.987 15.5814 114.186 14.652 114.664 14.1747C115.055 13.7832 116.025 13.7456 116.387 14.1078C116.635 14.3559 116.986 15.3653 116.988 15.8354C116.989 16.0145 117.164 16.0427 117.763 15.9606C118.189 15.9022 118.677 15.8544 118.848 15.8544C119.624 15.8544 118.829 13.4159 117.8 12.6387C117.205 12.1894 116.177 11.8439 115.487 11.8616C115.258 11.8675 114.71 11.9829 114.27 12.1181ZM122.699 12.155C121.261 12.6675 120.591 13.5055 120.161 15.3317C119.915 16.38 120.021 19.1024 120.348 20.0882C120.65 20.9986 121.829 22.2546 122.631 22.5193C123.025 22.6493 123.766 22.7099 124.472 22.67C126.034 22.5817 126.873 22.0231 127.576 20.6036C128.01 19.7266 128.077 19.3913 128.14 17.7598C128.222 15.6238 127.973 14.4876 127.189 13.4043C126.251 12.11 124.328 11.5749 122.699 12.155ZM73.4311 17.3564V22.53H74.5994H75.7676V21.9858C75.7676 21.6141 76.0163 21.0719 76.552 20.2752C76.9834 19.6336 77.6217 18.6218 77.9705 18.0267L78.6047 16.9446V19.7373V22.53H79.7729H80.9411V17.3564V12.1829H79.7729H78.6047V12.8695C78.6047 13.4427 78.3706 13.9289 77.1861 15.8142L75.7676 18.0724V15.1276V12.1829H74.5994H73.4311V17.3564ZM83.1107 17.3564V22.53H84.2789H85.4471V20.277V18.024H86.8657H88.2842V20.277V22.53H89.4525H90.6207V17.3564V12.1829H89.4525H88.2842V14.1855V16.1882H86.8657H85.4471V14.1855V12.1829H84.2789H83.1107V17.3564ZM102.303 17.3564V22.53H103.471H104.639V20.277V18.024H106.058H107.476V20.277V22.53H108.645H109.813V17.3564V12.1829H108.645H107.476V14.1855V16.1882H106.058H104.639V14.1855V12.1829H103.471H102.303V17.3564ZM129.993 12.2523C129.954 12.2904 129.944 14.6231 129.969 17.4362L130.016 22.551L133.004 22.4988C135.714 22.4514 136.034 22.4147 136.451 22.1024C137.239 21.514 137.567 20.9289 137.646 19.9731C137.743 18.8025 137.366 17.9854 136.487 17.4614L135.833 17.0709L136.265 16.7873C137.316 16.0989 137.65 14.5939 137.024 13.3675C136.493 12.3257 135.984 12.1829 132.805 12.1829C131.296 12.1829 130.031 12.2141 129.993 12.2523ZM139.352 17.3564V22.53H141.904C144.219 22.53 144.524 22.4953 145.196 22.1545C146.259 21.6154 146.612 20.9193 146.612 19.3591C146.612 17.9027 146.274 17.0544 145.465 16.4769C145.029 16.1662 144.674 16.0953 143.316 16.0474L141.689 15.9901V14.0864V12.1829H140.52H139.352V17.3564ZM147.196 17.3564V22.53H148.448H149.699V17.3564V12.1829H148.448H147.196V17.3564ZM151.869 17.3564V22.53H153.037H154.205V21.9536C154.205 21.5277 154.484 20.947 155.273 19.7313C155.861 18.8262 156.499 17.7912 156.692 17.4314L157.042 16.7773V19.6537V22.53H158.211H159.379V17.3564V12.1829H158.211H157.042V12.8104C157.042 13.3079 156.757 13.8937 155.666 15.6338L154.289 17.8294L154.243 15.0061L154.197 12.1829H153.033H151.869V17.3564ZM123.498 13.8987C122.782 14.2571 122.482 15.4519 122.547 17.6902C122.609 19.8487 122.852 20.5565 123.618 20.8142C124.933 21.2565 125.551 20.3664 125.642 17.9C125.728 15.5762 125.585 14.745 124.998 14.1583C124.48 13.6403 124.134 13.5802 123.498 13.8987ZM132.314 15.1872L132.259 16.5228L133.386 16.5223C134.29 16.522 134.579 16.4559 134.846 16.1882C135.254 15.7805 135.293 14.7543 134.92 14.2228C134.695 13.9007 134.509 13.8518 133.514 13.8518H132.368L132.314 15.1872ZM96.0446 17.7785C95.6774 17.9107 95.3602 18.0201 95.3396 18.0215C95.3189 18.0228 95.1876 18.2456 95.0476 18.5163C94.4136 19.7423 95.0709 21.181 96.1649 20.9622C97.1218 20.7708 97.6067 20.0327 97.7886 18.4898L97.9025 17.5233L97.3073 17.5307C96.98 17.5347 96.4117 17.6462 96.0446 17.7785ZM141.689 19.1922V20.6942H142.69C144.002 20.6942 144.359 20.3728 144.359 19.1922C144.359 18.0116 144.002 17.6902 142.69 17.6902H141.689V19.1922ZM132.259 19.2757V20.6942H133.469C134.457 20.6942 134.741 20.6328 135.013 20.3604C135.424 19.949 135.465 18.7681 135.087 18.2281C134.857 17.8993 134.681 17.8571 133.543 17.8571H132.259V19.2757ZM44.4759 18.4185C44.3841 18.5228 44.1213 18.8948 43.8918 19.2453C43.6623 19.5957 43.1931 20.0292 42.8488 20.2084C42.5046 20.3875 42.2229 20.6078 42.2229 20.6975C42.2229 20.7875 42.0868 20.8611 41.9204 20.8611C41.754 20.8611 41.4045 21.0837 41.1438 21.3558C40.8831 21.628 40.61 21.8135 40.5369 21.7683C40.4638 21.7232 40.3204 21.8421 40.2184 22.0327C40.1165 22.2232 39.8499 22.4487 39.626 22.5338C39.4022 22.6189 39.2189 22.8032 39.2189 22.943C39.2189 23.0834 39.0742 23.1975 38.8963 23.1975C38.7189 23.1975 38.5273 23.3439 38.4706 23.5228C38.4139 23.7017 38.2022 23.9001 38.0005 23.9639C37.7985 24.0276 37.5354 24.2192 37.4154 24.3896C37.2955 24.5602 37.0889 24.6995 36.9564 24.6995C36.8239 24.6995 36.7156 24.807 36.7156 24.9385C36.7156 25.0699 36.4716 25.3477 36.1732 25.556C35.8748 25.7641 35.5707 26.0321 35.4973 26.1515C35.4239 26.2708 35.26 26.3684 35.1332 26.3684C35.0062 26.3684 34.8546 26.5186 34.7964 26.7022C34.7381 26.8858 34.5921 27.036 34.4719 27.036C34.3518 27.036 34.0889 27.4303 33.8878 27.9121C33.4598 28.938 32.8299 30.2544 32.7098 30.3738C32.6637 30.4197 32.401 30.7952 32.1262 31.2082C31.8513 31.6213 31.5886 31.9967 31.5425 32.0426C31.0781 32.5044 31.0337 32.6985 31.2215 33.4445C31.3278 33.8667 31.4725 34.2122 31.5429 34.2122C31.7393 34.2122 32.0899 36.3038 31.9614 36.7085C31.8555 37.0426 30.1999 38.7786 29.0871 39.7227C28.8146 39.954 28.5607 40.2169 28.523 40.3068C28.4161 40.5628 26.8395 41.7222 26.5985 41.7222C26.4796 41.7222 26.1764 42.0788 25.9246 42.5149C25.6727 42.951 25.3999 43.3539 25.3184 43.4103C25.2368 43.4667 25.0819 43.6898 24.9741 43.9059C24.833 44.189 24.6228 44.3068 24.2236 44.327C23.7327 44.3517 23.6804 44.314 23.7672 43.9981C24.0848 42.8432 24.0731 42.4183 23.7175 42.1962C23.5234 42.0748 23.3645 41.8504 23.3645 41.6973C23.3645 41.5443 23.0265 41.0713 22.6135 40.6463C22.2004 40.2214 21.8625 39.7264 21.8625 39.5463C21.8625 39.3662 21.8054 39.2189 21.7357 39.2189C21.4423 39.2189 20.6943 38.3417 20.6943 37.9976C20.6943 37.7921 20.5441 37.4956 20.3605 37.3384C19.9333 36.9725 19.9333 36.3691 20.3605 36.0032C20.5441 35.846 20.6954 35.7731 20.6968 35.841C20.6983 35.909 20.7545 35.8894 20.8219 35.7976C20.9474 35.6267 21.4246 35.3312 22.238 34.9203C22.4903 34.7928 22.6969 34.6187 22.6969 34.5338C22.6969 34.4487 22.7909 34.3789 22.9056 34.3789C23.0975 34.3788 23.4047 34.1536 24.528 33.1902C24.755 32.9956 25.3745 32.5303 25.9049 32.1563L26.8692 31.4762V30.5306V29.585L25.6175 29.3833C24.9291 29.2721 24.3658 29.1248 24.3658 29.0557C24.3658 28.9864 23.9154 28.7104 23.3648 28.4419C22.8144 28.1735 22.3638 27.9073 22.3635 27.8504C22.3633 27.7935 22.0252 27.6523 21.6122 27.5366C21.1991 27.421 20.8612 27.2695 20.8612 27.1997C20.8612 27.1301 20.5795 27.022 20.2353 26.9595C19.8912 26.897 19.3091 26.7459 18.9419 26.6239C18.5748 26.5018 17.8238 26.3477 17.2731 26.2818C16.2614 26.1605 15.6876 25.8459 15.6876 25.4128C15.6876 25.1526 15.2716 24.6705 15.1511 24.791C15.1095 24.8327 14.8747 24.6413 14.6292 24.3659C14.3839 24.0904 14.0636 23.8651 13.9174 23.8651C13.7714 23.8651 13.4153 23.7563 13.126 23.6234C12.8368 23.4904 12.3824 23.3591 12.1164 23.3314C11.849 23.3035 11.5503 23.1348 11.4488 22.9542C11.1416 22.4078 10.9341 22.2416 10.4173 22.1281C10.1449 22.0684 9.72134 21.768 9.47618 21.4606C9.19163 21.1039 8.82614 20.8634 8.46633 20.7958C8.05044 20.7179 7.83182 20.5483 7.63356 20.1498C7.37972 19.64 7.36386 19.883 7.35385 24.4619C7.34233 29.7309 7.57364 32.3023 8.17912 33.6313C8.36186 34.0325 8.51139 34.44 8.51139 34.5368C8.51139 34.6336 8.57915 34.7129 8.66192 34.7129C8.7447 34.7129 8.89106 34.9382 8.98703 35.2135C9.08299 35.4889 9.24053 35.7142 9.33716 35.7142C9.43378 35.7142 9.51272 35.8178 9.51272 35.9445C9.51272 36.1399 10.096 36.961 11.1816 38.2945C11.5404 38.7352 14.8802 42.0742 15.3714 42.4832C15.5985 42.6723 16.1591 43.1234 16.6172 43.4855C17.0753 43.8477 17.5604 44.2362 17.6953 44.349C18.5686 45.0797 19.0134 45.3937 19.1746 45.3937C19.2761 45.3937 19.3592 45.4714 19.3592 45.566C19.3592 45.6608 19.4935 45.7921 19.6579 45.858C19.8221 45.924 20.4177 46.3043 20.9817 46.7033C21.5454 47.1024 22.0598 47.4151 22.1245 47.3984C22.1894 47.3816 22.2884 47.4308 22.3445 47.5077C22.4341 47.6306 22.8396 47.9029 24.1155 48.6973C24.2991 48.8116 24.6883 49.0151 24.9803 49.1496C25.2724 49.2841 25.5584 49.4703 25.616 49.5635C25.7642 49.8033 26.3039 49.7736 26.5666 49.5111C26.7982 49.2792 27.4094 48.9236 28.3294 48.485C28.6278 48.3427 28.8718 48.1701 28.8718 48.1013C28.8718 47.9765 29.1375 47.816 30.1652 47.32C30.4636 47.1759 30.7076 47.0024 30.7076 46.9343C30.7076 46.866 30.9142 46.7155 31.1665 46.5997C31.6098 46.3964 34.8082 44.0541 36.2466 42.8796C37.2101 42.0929 41.0639 38.2376 41.4616 37.6626C41.7526 37.2417 42.0517 36.8587 42.5544 36.2629C42.6482 36.1516 42.8171 35.8512 42.9295 35.5954C43.042 35.3394 43.1794 35.0925 43.2348 35.0466C43.4063 34.9046 44.2256 33.0777 44.2256 32.8374C44.2256 32.7124 44.3196 32.5163 44.4342 32.4016C44.5909 32.2451 44.6553 30.7731 44.6932 26.4854C44.753 19.7333 44.7104 18.152 44.4759 18.4185ZM65.944 29.581C65.8692 29.7876 65.1815 32.4535 64.4156 35.5056C63.088 40.7961 63.0051 41.0546 62.6363 41.0546H62.2496V43.6501V46.2457L63.1258 46.1951L64.0019 46.1447L64.1473 44.6845L64.2926 43.2242H67.5894H70.8861L70.9904 43.7457C71.0478 44.0326 71.0959 44.6145 71.0972 45.0391C71.1009 46.1222 71.2297 46.2579 72.1957 46.1966L73.0139 46.1447L73.06 43.6112L73.1059 41.0777L72.6539 41.0244L72.2018 40.9712L70.9253 35.3654C70.2234 32.2823 69.601 29.6349 69.5426 29.4826C69.4533 29.2499 69.1678 29.2055 67.7581 29.2055C66.1691 29.2055 66.0725 29.2256 65.944 29.581ZM67.345 32.0844C67.3078 32.1992 66.8517 34.208 66.3315 36.5486C65.8112 38.8893 65.3516 40.8605 65.3098 40.9295C65.2681 40.9984 66.216 41.0546 67.4165 41.0546C69.5932 41.0546 69.5989 41.0536 69.5163 40.6791C69.3596 39.9674 67.7569 32.0094 67.7569 31.9427C67.7569 31.7768 67.4055 31.8978 67.345 32.0844ZM76.6596 32.7347C75.7122 32.9475 74.5673 33.9859 74.1665 34.9962C73.9086 35.6459 73.8484 36.2265 73.8484 38.0625C73.8484 40.2522 73.8651 40.3599 74.3512 41.3103C75.0952 42.7654 75.9205 43.2903 77.5752 43.3614C79.449 43.4418 80.5238 42.8687 81.2711 41.3906C82.2677 39.4193 82.1177 35.7195 80.98 34.2187C80.3208 33.3489 79.9483 33.0767 79.0333 32.796C78.121 32.5159 77.6843 32.5046 76.6596 32.7347ZM101.215 32.7661C100.252 33.082 99.7281 33.4674 99.2201 34.2351C97.9349 36.1771 98.0886 40.5455 99.4988 42.1516C100.289 43.0513 101.094 43.3917 102.421 43.3874C105.21 43.3784 106.511 41.6671 106.524 37.9907C106.531 36.0293 106.241 34.9458 105.456 33.9934C104.483 32.8122 102.672 32.2881 101.215 32.7661ZM111.732 32.8949C111.549 33.0014 111.192 33.2805 110.939 33.5148L110.48 33.9408V33.409V32.8771H109.396H108.311V39.7195V46.562H109.479H110.647V44.548V42.5339L111.174 42.9093C111.501 43.1416 112.03 43.3118 112.564 43.356C114.863 43.5468 116.324 41.4608 116.32 37.9941C116.316 35.5328 115.78 34.1518 114.437 33.1489C113.908 32.7544 112.243 32.598 111.732 32.8949ZM83.6114 38.0506V43.2242H84.7796H85.9478V41.589C85.9478 39.965 85.952 39.9483 86.567 39.1137L87.1861 38.2734L88.1664 40.7487L89.1466 43.2242H90.3844C91.0651 43.2242 91.622 43.191 91.622 43.1503C91.622 43.1095 91.0503 41.7766 90.3515 40.188C89.6527 38.5994 89.0087 37.098 88.9204 36.8515C88.7762 36.4492 88.8719 36.2547 89.8572 34.9485L90.9545 33.4937V34.1034V34.7129H92.1227H93.2909V38.9685V43.2242H94.4591H95.6274V38.9685V34.7129H96.7956H97.9638V33.795V32.8771L93.4995 32.8773H89.0352L87.5332 34.9869L86.0312 37.0964L85.9845 34.9867L85.9378 32.8771H84.7746H83.6114V38.0506ZM77.0586 34.7117C76.5016 35.1499 76.2192 36.3602 76.2369 38.2337C76.2627 40.9854 76.832 41.8918 78.2928 41.5076C79.0978 41.2958 79.3557 40.437 79.3557 37.9672C79.3557 35.5683 79.1404 34.8449 78.3355 34.5388C77.734 34.3102 77.5348 34.3372 77.0586 34.7117ZM101.822 34.6513C101.267 35.0401 100.97 35.8749 100.862 37.35C100.67 39.9871 101.276 41.6109 102.451 41.6109C103.462 41.6109 103.939 40.7494 104.086 38.6595C104.211 36.8657 103.924 35.4739 103.299 34.8485C102.763 34.313 102.378 34.2616 101.822 34.6513ZM111.716 34.6184C110.916 34.9649 110.647 35.8417 110.647 38.1126C110.647 40.211 110.813 40.9059 111.405 41.294C112.316 41.8911 113.31 41.4108 113.655 40.2063C113.868 39.4662 113.864 36.4687 113.65 35.6975C113.363 34.6648 112.597 34.2374 111.716 34.6184Z" fill="#058E00"/>
</svg>
